<svg width="97" height="61" viewBox="0 0 97 61" fill="none" xmlns="http://www.w3.org/2000/svg">
<g clip-path="url(#clip0_0_1409)">
<path d="M95.0193 2.34615C95.6671 2.34615 96.1923 1.82095 96.1923 1.17308C96.1923 0.525204 95.6671 0 95.0193 0C94.3714 0 93.8462 0.525204 93.8462 1.17308C93.8462 1.82095 94.3714 2.34615 95.0193 2.34615Z" fill="#FF106A"/>
<path d="M95.0193 14.0771C95.6671 14.0771 96.1923 13.5519 96.1923 12.904C96.1923 12.2562 95.6671 11.731 95.0193 11.731C94.3714 11.731 93.8462 12.2562 93.8462 12.904C93.8462 13.5519 94.3714 14.0771 95.0193 14.0771Z" fill="#FF106A"/>
<path d="M95.0193 25.8078C95.6671 25.8078 96.1923 25.2826 96.1923 24.6347C96.1923 23.9869 95.6671 23.4617 95.0193 23.4617C94.3714 23.4617 93.8462 23.9869 93.8462 24.6347C93.8462 25.2826 94.3714 25.8078 95.0193 25.8078Z" fill="#FF106A"/>
<path d="M95.0193 37.5385C95.6671 37.5385 96.1923 37.0133 96.1923 36.3655C96.1923 35.7176 95.6671 35.1924 95.0193 35.1924C94.3714 35.1924 93.8462 35.7176 93.8462 36.3655C93.8462 37.0133 94.3714 37.5385 95.0193 37.5385Z" fill="#FF106A"/>
<path d="M95.0193 49.2692C95.6671 49.2692 96.1923 48.744 96.1923 48.0962C96.1923 47.4483 95.6671 46.9231 95.0193 46.9231C94.3714 46.9231 93.8462 47.4483 93.8462 48.0962C93.8462 48.744 94.3714 49.2692 95.0193 49.2692Z" fill="#FF106A"/>
<path d="M95.0193 61C95.6671 61 96.1923 60.4748 96.1923 59.8269C96.1923 59.179 95.6671 58.6538 95.0193 58.6538C94.3714 58.6538 93.8462 59.179 93.8462 59.8269C93.8462 60.4748 94.3714 61 95.0193 61Z" fill="#FF106A"/>
<path d="M83.2884 2.34615C83.9363 2.34615 84.4615 1.82095 84.4615 1.17308C84.4615 0.525204 83.9363 0 83.2884 0C82.6406 0 82.1154 0.525204 82.1154 1.17308C82.1154 1.82095 82.6406 2.34615 83.2884 2.34615Z" fill="#FF106A"/>
<path d="M83.2884 14.0771C83.9363 14.0771 84.4615 13.5519 84.4615 12.904C84.4615 12.2562 83.9363 11.731 83.2884 11.731C82.6406 11.731 82.1154 12.2562 82.1154 12.904C82.1154 13.5519 82.6406 14.0771 83.2884 14.0771Z" fill="#FF106A"/>
<path d="M83.2884 25.8078C83.9363 25.8078 84.4615 25.2826 84.4615 24.6347C84.4615 23.9869 83.9363 23.4617 83.2884 23.4617C82.6406 23.4617 82.1154 23.9869 82.1154 24.6347C82.1154 25.2826 82.6406 25.8078 83.2884 25.8078Z" fill="#FF106A"/>
<path d="M83.2884 37.5385C83.9363 37.5385 84.4615 37.0133 84.4615 36.3655C84.4615 35.7176 83.9363 35.1924 83.2884 35.1924C82.6406 35.1924 82.1154 35.7176 82.1154 36.3655C82.1154 37.0133 82.6406 37.5385 83.2884 37.5385Z" fill="#FF106A"/>
<path d="M83.2884 49.2692C83.9363 49.2692 84.4615 48.744 84.4615 48.0962C84.4615 47.4483 83.9363 46.9231 83.2884 46.9231C82.6406 46.9231 82.1154 47.4483 82.1154 48.0962C82.1154 48.744 82.6406 49.2692 83.2884 49.2692Z" fill="#FF106A"/>
<path d="M83.2884 61C83.9363 61 84.4615 60.4748 84.4615 59.8269C84.4615 59.179 83.9363 58.6538 83.2884 58.6538C82.6406 58.6538 82.1154 59.179 82.1154 59.8269C82.1154 60.4748 82.6406 61 83.2884 61Z" fill="#FF106A"/>
<path d="M71.5577 2.34615C72.2056 2.34615 72.7308 1.82095 72.7308 1.17308C72.7308 0.525204 72.2056 0 71.5577 0C70.9098 0 70.3846 0.525204 70.3846 1.17308C70.3846 1.82095 70.9098 2.34615 71.5577 2.34615Z" fill="#FF106A"/>
<path d="M71.5577 14.0771C72.2056 14.0771 72.7308 13.5519 72.7308 12.904C72.7308 12.2562 72.2056 11.731 71.5577 11.731C70.9098 11.731 70.3846 12.2562 70.3846 12.904C70.3846 13.5519 70.9098 14.0771 71.5577 14.0771Z" fill="#FF106A"/>
<path d="M71.5577 25.8078C72.2056 25.8078 72.7308 25.2826 72.7308 24.6347C72.7308 23.9869 72.2056 23.4617 71.5577 23.4617C70.9098 23.4617 70.3846 23.9869 70.3846 24.6347C70.3846 25.2826 70.9098 25.8078 71.5577 25.8078Z" fill="#FF106A"/>
<path d="M71.5577 37.5385C72.2056 37.5385 72.7308 37.0133 72.7308 36.3655C72.7308 35.7176 72.2056 35.1924 71.5577 35.1924C70.9098 35.1924 70.3846 35.7176 70.3846 36.3655C70.3846 37.0133 70.9098 37.5385 71.5577 37.5385Z" fill="#FF106A"/>
<path d="M71.5577 49.2692C72.2056 49.2692 72.7308 48.744 72.7308 48.0962C72.7308 47.4483 72.2056 46.9231 71.5577 46.9231C70.9098 46.9231 70.3846 47.4483 70.3846 48.0962C70.3846 48.744 70.9098 49.2692 71.5577 49.2692Z" fill="#FF106A"/>
<path d="M71.5577 61C72.2056 61 72.7308 60.4748 72.7308 59.8269C72.7308 59.179 72.2056 58.6538 71.5577 58.6538C70.9098 58.6538 70.3846 59.179 70.3846 59.8269C70.3846 60.4748 70.9098 61 71.5577 61Z" fill="#FF106A"/>
<path d="M59.8269 2.34615C60.4748 2.34615 61 1.82095 61 1.17308C61 0.525204 60.4748 0 59.8269 0C59.179 0 58.6538 0.525204 58.6538 1.17308C58.6538 1.82095 59.179 2.34615 59.8269 2.34615Z" fill="#FF106A"/>
<path d="M59.8269 14.0771C60.4748 14.0771 61 13.5519 61 12.904C61 12.2562 60.4748 11.731 59.8269 11.731C59.179 11.731 58.6538 12.2562 58.6538 12.904C58.6538 13.5519 59.179 14.0771 59.8269 14.0771Z" fill="#FF106A"/>
<path d="M59.8269 25.8078C60.4748 25.8078 61 25.2826 61 24.6347C61 23.9869 60.4748 23.4617 59.8269 23.4617C59.179 23.4617 58.6538 23.9869 58.6538 24.6347C58.6538 25.2826 59.179 25.8078 59.8269 25.8078Z" fill="#FF106A"/>
<path d="M59.8269 37.5385C60.4748 37.5385 61 37.0133 61 36.3655C61 35.7176 60.4748 35.1924 59.8269 35.1924C59.179 35.1924 58.6538 35.7176 58.6538 36.3655C58.6538 37.0133 59.179 37.5385 59.8269 37.5385Z" fill="#FF106A"/>
<path d="M59.8269 49.2692C60.4748 49.2692 61 48.744 61 48.0962C61 47.4483 60.4748 46.9231 59.8269 46.9231C59.179 46.9231 58.6538 47.4483 58.6538 48.0962C58.6538 48.744 59.179 49.2692 59.8269 49.2692Z" fill="#FF106A"/>
<path d="M59.8269 61C60.4748 61 61 60.4748 61 59.8269C61 59.179 60.4748 58.6538 59.8269 58.6538C59.179 58.6538 58.6538 59.179 58.6538 59.8269C58.6538 60.4748 59.179 61 59.8269 61Z" fill="#FF106A"/>
<path d="M48.0962 2.34615C48.744 2.34615 49.2692 1.82095 49.2692 1.17308C49.2692 0.525204 48.744 0 48.0962 0C47.4483 0 46.9231 0.525204 46.9231 1.17308C46.9231 1.82095 47.4483 2.34615 48.0962 2.34615Z" fill="#FF106A"/>
<path d="M48.0962 14.0771C48.744 14.0771 49.2692 13.5519 49.2692 12.904C49.2692 12.2562 48.744 11.731 48.0962 11.731C47.4483 11.731 46.9231 12.2562 46.9231 12.904C46.9231 13.5519 47.4483 14.0771 48.0962 14.0771Z" fill="#FF106A"/>
<path d="M48.0962 25.8078C48.744 25.8078 49.2692 25.2826 49.2692 24.6347C49.2692 23.9869 48.744 23.4617 48.0962 23.4617C47.4483 23.4617 46.9231 23.9869 46.9231 24.6347C46.9231 25.2826 47.4483 25.8078 48.0962 25.8078Z" fill="#FF106A"/>
<path d="M48.0962 37.5385C48.744 37.5385 49.2692 37.0133 49.2692 36.3655C49.2692 35.7176 48.744 35.1924 48.0962 35.1924C47.4483 35.1924 46.9231 35.7176 46.9231 36.3655C46.9231 37.0133 47.4483 37.5385 48.0962 37.5385Z" fill="#FF106A"/>
<path d="M48.0962 49.2692C48.744 49.2692 49.2692 48.744 49.2692 48.0962C49.2692 47.4483 48.744 46.9231 48.0962 46.9231C47.4483 46.9231 46.9231 47.4483 46.9231 48.0962C46.9231 48.744 47.4483 49.2692 48.0962 49.2692Z" fill="#FF106A"/>
<path d="M48.0962 61C48.744 61 49.2692 60.4748 49.2692 59.8269C49.2692 59.179 48.744 58.6538 48.0962 58.6538C47.4483 58.6538 46.9231 59.179 46.9231 59.8269C46.9231 60.4748 47.4483 61 48.0962 61Z" fill="#FF106A"/>
<path d="M36.3653 2.34615C37.0132 2.34615 37.5384 1.82095 37.5384 1.17308C37.5384 0.525204 37.0132 0 36.3653 0C35.7175 0 35.1923 0.525204 35.1923 1.17308C35.1923 1.82095 35.7175 2.34615 36.3653 2.34615Z" fill="#FF106A"/>
<path d="M36.3653 14.0771C37.0132 14.0771 37.5384 13.5519 37.5384 12.904C37.5384 12.2562 37.0132 11.731 36.3653 11.731C35.7175 11.731 35.1923 12.2562 35.1923 12.904C35.1923 13.5519 35.7175 14.0771 36.3653 14.0771Z" fill="#FF106A"/>
<path d="M36.3653 25.8078C37.0132 25.8078 37.5384 25.2826 37.5384 24.6347C37.5384 23.9869 37.0132 23.4617 36.3653 23.4617C35.7175 23.4617 35.1923 23.9869 35.1923 24.6347C35.1923 25.2826 35.7175 25.8078 36.3653 25.8078Z" fill="#FF106A"/>
<path d="M36.3653 37.5385C37.0132 37.5385 37.5384 37.0133 37.5384 36.3655C37.5384 35.7176 37.0132 35.1924 36.3653 35.1924C35.7175 35.1924 35.1923 35.7176 35.1923 36.3655C35.1923 37.0133 35.7175 37.5385 36.3653 37.5385Z" fill="#FF106A"/>
<path d="M36.3653 49.2692C37.0132 49.2692 37.5384 48.744 37.5384 48.0962C37.5384 47.4483 37.0132 46.9231 36.3653 46.9231C35.7175 46.9231 35.1923 47.4483 35.1923 48.0962C35.1923 48.744 35.7175 49.2692 36.3653 49.2692Z" fill="#FF106A"/>
<path d="M36.3653 61C37.0132 61 37.5384 60.4748 37.5384 59.8269C37.5384 59.179 37.0132 58.6538 36.3653 58.6538C35.7175 58.6538 35.1923 59.179 35.1923 59.8269C35.1923 60.4748 35.7175 61 36.3653 61Z" fill="#FF106A"/>
<path d="M24.6346 2.34615C25.2825 2.34615 25.8077 1.82095 25.8077 1.17308C25.8077 0.525204 25.2825 0 24.6346 0C23.9868 0 23.4615 0.525204 23.4615 1.17308C23.4615 1.82095 23.9868 2.34615 24.6346 2.34615Z" fill="#FF106A"/>
<path d="M24.6346 14.0771C25.2825 14.0771 25.8077 13.5519 25.8077 12.904C25.8077 12.2562 25.2825 11.731 24.6346 11.731C23.9868 11.731 23.4615 12.2562 23.4615 12.904C23.4615 13.5519 23.9868 14.0771 24.6346 14.0771Z" fill="#FF106A"/>
<path d="M24.6346 25.8078C25.2825 25.8078 25.8077 25.2826 25.8077 24.6347C25.8077 23.9869 25.2825 23.4617 24.6346 23.4617C23.9868 23.4617 23.4615 23.9869 23.4615 24.6347C23.4615 25.2826 23.9868 25.8078 24.6346 25.8078Z" fill="#FF106A"/>
<path d="M24.6346 37.5385C25.2825 37.5385 25.8077 37.0133 25.8077 36.3655C25.8077 35.7176 25.2825 35.1924 24.6346 35.1924C23.9868 35.1924 23.4615 35.7176 23.4615 36.3655C23.4615 37.0133 23.9868 37.5385 24.6346 37.5385Z" fill="#FF106A"/>
<path d="M24.6346 49.2692C25.2825 49.2692 25.8077 48.744 25.8077 48.0962C25.8077 47.4483 25.2825 46.9231 24.6346 46.9231C23.9868 46.9231 23.4615 47.4483 23.4615 48.0962C23.4615 48.744 23.9868 49.2692 24.6346 49.2692Z" fill="#FF106A"/>
<path d="M24.6346 61C25.2825 61 25.8077 60.4748 25.8077 59.8269C25.8077 59.179 25.2825 58.6538 24.6346 58.6538C23.9868 58.6538 23.4615 59.179 23.4615 59.8269C23.4615 60.4748 23.9868 61 24.6346 61Z" fill="#FF106A"/>
<path d="M12.9039 2.34615C13.5518 2.34615 14.077 1.82095 14.077 1.17308C14.077 0.525204 13.5518 0 12.9039 0C12.256 0 11.7308 0.525204 11.7308 1.17308C11.7308 1.82095 12.256 2.34615 12.9039 2.34615Z" fill="#FF106A"/>
<path d="M12.9039 14.0771C13.5518 14.0771 14.077 13.5519 14.077 12.904C14.077 12.2562 13.5518 11.731 12.9039 11.731C12.256 11.731 11.7308 12.2562 11.7308 12.904C11.7308 13.5519 12.256 14.0771 12.9039 14.0771Z" fill="#FF106A"/>
<path d="M12.9039 25.8078C13.5518 25.8078 14.077 25.2826 14.077 24.6347C14.077 23.9869 13.5518 23.4617 12.9039 23.4617C12.256 23.4617 11.7308 23.9869 11.7308 24.6347C11.7308 25.2826 12.256 25.8078 12.9039 25.8078Z" fill="#FF106A"/>
<path d="M12.9039 37.5385C13.5518 37.5385 14.077 37.0133 14.077 36.3655C14.077 35.7176 13.5518 35.1924 12.9039 35.1924C12.256 35.1924 11.7308 35.7176 11.7308 36.3655C11.7308 37.0133 12.256 37.5385 12.9039 37.5385Z" fill="#FF106A"/>
<path d="M12.9039 49.2692C13.5518 49.2692 14.077 48.744 14.077 48.0962C14.077 47.4483 13.5518 46.9231 12.9039 46.9231C12.256 46.9231 11.7308 47.4483 11.7308 48.0962C11.7308 48.744 12.256 49.2692 12.9039 49.2692Z" fill="#FF106A"/>
<path d="M12.9039 61C13.5518 61 14.077 60.4748 14.077 59.8269C14.077 59.179 13.5518 58.6538 12.9039 58.6538C12.256 58.6538 11.7308 59.179 11.7308 59.8269C11.7308 60.4748 12.256 61 12.9039 61Z" fill="#FF106A"/>
<path d="M1.17308 2.34615C1.82095 2.34615 2.34615 1.82095 2.34615 1.17308C2.34615 0.525204 1.82095 0 1.17308 0C0.525204 0 0 0.525204 0 1.17308C0 1.82095 0.525204 2.34615 1.17308 2.34615Z" fill="#FF106A"/>
<path d="M1.17308 14.0771C1.82095 14.0771 2.34615 13.5519 2.34615 12.904C2.34615 12.2562 1.82095 11.731 1.17308 11.731C0.525204 11.731 0 12.2562 0 12.904C0 13.5519 0.525204 14.0771 1.17308 14.0771Z" fill="#FF106A"/>
<path d="M1.17308 25.8078C1.82095 25.8078 2.34615 25.2826 2.34615 24.6347C2.34615 23.9869 1.82095 23.4617 1.17308 23.4617C0.525204 23.4617 0 23.9869 0 24.6347C0 25.2826 0.525204 25.8078 1.17308 25.8078Z" fill="#FF106A"/>
<path d="M1.17308 37.5385C1.82095 37.5385 2.34615 37.0133 2.34615 36.3655C2.34615 35.7176 1.82095 35.1924 1.17308 35.1924C0.525204 35.1924 0 35.7176 0 36.3655C0 37.0133 0.525204 37.5385 1.17308 37.5385Z" fill="#FF106A"/>
<path d="M1.17308 49.2692C1.82095 49.2692 2.34615 48.744 2.34615 48.0962C2.34615 47.4483 1.82095 46.9231 1.17308 46.9231C0.525204 46.9231 0 47.4483 0 48.0962C0 48.744 0.525204 49.2692 1.17308 49.2692Z" fill="#FF106A"/>
<path d="M1.17308 61C1.82095 61 2.34615 60.4748 2.34615 59.8269C2.34615 59.179 1.82095 58.6538 1.17308 58.6538C0.525204 58.6538 0 59.179 0 59.8269C0 60.4748 0.525204 61 1.17308 61Z" fill="#FF106A"/>
</g>
<defs>
<clipPath id="clip0_0_1409">
<rect width="96.1923" height="61" fill="white"/>
</clipPath>
</defs>
</svg>
