<svg width="29" height="29" viewBox="0 0 29 29" fill="none" xmlns="http://www.w3.org/2000/svg">
<path fill-rule="evenodd" clip-rule="evenodd" d="M9.02013 1.288C10.4375 1.22275 10.8894 1.20825 14.4999 1.20825C18.1104 1.20825 18.5623 1.22396 19.9785 1.288C21.3947 1.35204 22.3613 1.578 23.2072 1.90546C24.0929 2.24017 24.8964 2.76338 25.561 3.44004C26.2377 4.10342 26.7597 4.90575 27.0932 5.79267C27.4218 6.6385 27.6466 7.60517 27.7118 9.01892C27.7771 10.4387 27.7916 10.8906 27.7916 14.4999C27.7916 18.1104 27.7759 18.5623 27.7118 19.9797C27.6478 21.3935 27.4218 22.3601 27.0932 23.206C26.7597 24.093 26.2368 24.8967 25.561 25.561C24.8964 26.2377 24.0929 26.7597 23.2072 27.0932C22.3613 27.4218 21.3947 27.6466 19.9809 27.7118C18.5623 27.7771 18.1104 27.7916 14.4999 27.7916C10.8894 27.7916 10.4375 27.7759 9.02013 27.7118C7.60638 27.6478 6.63971 27.4218 5.79388 27.0932C4.90686 26.7596 4.1032 26.2368 3.43884 25.561C2.76263 24.8972 2.23934 24.0939 1.90546 23.2072C1.578 22.3613 1.35325 21.3947 1.288 19.9809C1.22275 18.5611 1.20825 18.1092 1.20825 14.4999C1.20825 10.8894 1.22396 10.4375 1.288 9.02133C1.35204 7.60517 1.578 6.6385 1.90546 5.79267C2.23983 4.90585 2.76352 4.10259 3.44004 3.43883C4.10347 2.76277 4.90632 2.2395 5.79267 1.90546C6.6385 1.578 7.60517 1.35325 9.01892 1.288H9.02013ZM19.871 3.6805C18.4693 3.61646 18.0488 3.60317 14.4999 3.60317C10.951 3.60317 10.5305 3.61646 9.12888 3.6805C7.83233 3.73971 7.12909 3.956 6.66025 4.13846C6.04038 4.38013 5.59692 4.6665 5.13171 5.13171C4.69072 5.56073 4.35134 6.08301 4.13846 6.66025C3.956 7.12908 3.73971 7.83233 3.6805 9.12888C3.61646 10.5305 3.60317 10.951 3.60317 14.4999C3.60317 18.0488 3.61646 18.4693 3.6805 19.871C3.73971 21.1675 3.956 21.8708 4.13846 22.3396C4.35113 22.916 4.69067 23.4392 5.13171 23.8681C5.56067 24.3092 6.08388 24.6487 6.66025 24.8614C7.12909 25.0438 7.83233 25.2601 9.12888 25.3193C10.5305 25.3834 10.9498 25.3967 14.4999 25.3967C18.05 25.3967 18.4693 25.3834 19.871 25.3193C21.1675 25.2601 21.8708 25.0438 22.3396 24.8614C22.9595 24.6197 23.4029 24.3333 23.8681 23.8681C24.3092 23.4392 24.6487 22.916 24.8614 22.3396C25.0438 21.8708 25.2601 21.1675 25.3193 19.871C25.3834 18.4693 25.3967 18.0488 25.3967 14.4999C25.3967 10.951 25.3834 10.5305 25.3193 9.12888C25.2601 7.83233 25.0438 7.12908 24.8614 6.66025C24.6197 6.04038 24.3333 5.59692 23.8681 5.13171C23.4391 4.69075 22.9168 4.35138 22.3396 4.13846C21.8708 3.956 21.1675 3.73971 19.871 3.6805ZM12.8022 18.5974C13.7503 18.9921 14.8061 19.0453 15.7891 18.7481C16.7722 18.4508 17.6215 17.8215 18.1921 16.9676C18.7627 16.1137 19.0192 15.0882 18.9176 14.0663C18.8161 13.0443 18.363 12.0893 17.6355 11.3643C17.1718 10.9009 16.6111 10.546 15.9938 10.3253C15.3765 10.1046 14.7179 10.0235 14.0655 10.0878C13.4131 10.1522 12.7831 10.3604 12.2208 10.6974C11.6585 11.0345 11.1779 11.4921 10.8137 12.0372C10.4494 12.5822 10.2106 13.2013 10.1143 13.8498C10.018 14.4983 10.0667 15.16 10.2569 15.7874C10.4471 16.4148 10.774 16.9922 11.2141 17.4781C11.6542 17.964 12.1966 18.3463 12.8022 18.5974ZM9.669 9.669C10.3034 9.0346 11.0566 8.53136 11.8854 8.18802C12.7143 7.84468 13.6027 7.66797 14.4999 7.66797C15.3971 7.66797 16.2855 7.84468 17.1144 8.18802C17.9433 8.53136 18.6964 9.0346 19.3308 9.669C19.9652 10.3034 20.4685 11.0566 20.8118 11.8854C21.1552 12.7143 21.3319 13.6027 21.3319 14.4999C21.3319 15.3971 21.1552 16.2855 20.8118 17.1144C20.4685 17.9433 19.9652 18.6964 19.3308 19.3308C18.0496 20.6121 16.3119 21.3319 14.4999 21.3319C12.688 21.3319 10.9502 20.6121 9.669 19.3308C8.38776 18.0496 7.66797 16.3119 7.66797 14.4999C7.66797 12.688 8.38776 10.9502 9.669 9.669ZM22.8471 8.68542C23.0043 8.53712 23.1301 8.35878 23.2172 8.16097C23.3043 7.96316 23.3507 7.74989 23.3539 7.53379C23.357 7.31769 23.3168 7.10316 23.2355 6.9029C23.1543 6.70263 23.0337 6.5207 22.8809 6.36788C22.7281 6.21506 22.5461 6.09446 22.3459 6.01321C22.1456 5.93196 21.9311 5.89172 21.715 5.89487C21.4989 5.89802 21.2856 5.9445 21.0878 6.03155C20.89 6.1186 20.7116 6.24446 20.5633 6.40167C20.2749 6.70741 20.117 7.11352 20.1231 7.53379C20.1293 7.95406 20.2989 8.3554 20.5961 8.6526C20.8934 8.94981 21.2947 9.11948 21.715 9.12561C22.1352 9.13174 22.5413 8.97383 22.8471 8.68542Z" fill="white"/>
</svg>
