<svg width="40" height="31" viewBox="0 0 40 31" fill="none" xmlns="http://www.w3.org/2000/svg">
<path fill-rule="evenodd" clip-rule="evenodd" d="M29.5 29.1377C28.079 30.3857 25.9131 30.2609 24.6526 28.854C23.392 27.4471 23.5181 25.3028 24.9391 24.0547L33.2931 16.6912C34.7026 15.4432 36.88 15.568 38.1405 16.9749C39.4011 18.3704 39.275 20.5261 37.854 21.7742L29.5 29.1377ZM22.2804 20.651C22.1086 20.8098 21.9137 20.9459 21.7189 21.0594H21.7075L21.6502 21.0934L21.6273 21.1048L21.57 21.1388L21.5585 21.1502L21.5127 21.1729L21.4897 21.1842L21.4554 21.1956L21.4095 21.2182L21.3866 21.2296L21.3293 21.2523C20.9168 21.4225 20.4813 21.5019 20.0458 21.5132H19.9771C19.5416 21.5132 19.1061 21.4225 18.6936 21.2523L18.6363 21.2296L18.6134 21.2182L18.5675 21.1956L18.5332 21.1842L18.5102 21.1729L18.4644 21.1502L18.4529 21.1388L18.3956 21.1048L18.3727 21.0934L18.3154 21.0594H18.304C18.1092 20.9459 17.9143 20.8098 17.7425 20.651L2.14595 6.93381C0.736419 5.68577 0.610363 3.5414 1.87092 2.13452C3.13147 0.738979 5.29734 0.602829 6.71832 1.85087L20.0114 13.5598L33.3046 1.85087C34.7141 0.602829 36.8914 0.727633 38.152 2.13452C39.4125 3.5414 39.2865 5.68577 37.8655 6.93381L22.2804 20.651ZM15.0609 24.0661C16.4704 25.3141 16.608 27.4585 15.3474 28.8654C14.0868 30.2722 11.921 30.3857 10.5 29.149L2.14595 21.7855C0.736419 20.5375 0.598904 18.3931 1.85946 16.9862C3.12001 15.5794 5.28588 15.4546 6.70687 16.7026L15.0609 24.0661Z" fill="url(#paint0_linear_0_711)"/>
<defs>
<linearGradient id="paint0_linear_0_711" x1="0.999989" y1="15.5007" x2="39.0033" y2="15.5007" gradientUnits="userSpaceOnUse">
<stop stop-color="#FF006F"/>
<stop offset="1" stop-color="#FFD940"/>
</linearGradient>
</defs>
</svg>
