<svg width="127" height="54" viewBox="0 0 127 54" fill="none" xmlns="http://www.w3.org/2000/svg">
<g clip-path="url(#clip0_0_936)">
<path d="M40.7667 9.74837H2.70285V2.68673H40.7667V9.74837ZM43.4364 0.0170898H-0.0529175V12.5041H43.4364V0.0170898Z" fill="#00B188"/>
<path d="M2.72437 33.1509H0.0332031V20.6639H2.72437V25.6156H7.56847V20.6639H10.2596V33.1509H7.56847V27.9838H2.72437V33.1509Z" fill="#040404"/>
<path d="M14.4578 27.6607H17.6873C17.5796 26.6919 17.2567 26.1536 16.1802 26.1536C15.319 26.046 14.6731 26.3689 14.4578 27.6607ZM16.5031 33.2583C13.7043 33.2583 11.8743 31.536 11.8743 28.6295C11.8743 25.8307 13.7043 23.893 16.1802 23.893C18.8714 23.893 20.1631 25.723 20.1631 28.3066V29.383H14.4578C14.7808 30.7824 15.8573 31.1054 16.9337 31.1054C17.9025 31.1054 18.5484 30.8901 19.4096 30.3518H19.5172V32.5048C18.7637 33.043 17.6873 33.2583 16.5031 33.2583Z" fill="#040404"/>
<path d="M27.1602 27.8977L25.7608 33.1724H23.3925L20.7014 24.3453V24.2377H23.2849L24.7919 29.5124L26.1913 24.2377H28.3443L29.636 29.5124L31.1431 24.2377H33.619V24.3453L30.9278 33.1724H28.5596L27.1602 27.8977Z" fill="#040404"/>
<path d="M38.0756 33.2153C35.9226 33.2153 35.0615 32.3542 35.0615 30.3089V20.513H37.645V30.0936C37.645 30.7395 37.8603 30.9548 38.3985 30.9548C38.6138 30.9548 38.8291 30.8471 39.0444 30.8471V33C38.8291 33.2153 38.5062 33.2153 38.0756 33.2153Z" fill="#040404"/>
<path d="M42.4245 27.6607H45.6539C45.5462 26.6919 45.2233 26.046 44.1468 26.046C43.2856 26.046 42.6398 26.3689 42.4245 27.6607ZM44.4698 33.2583C41.6709 33.2583 39.8409 31.536 39.8409 28.6295C39.8409 25.8307 41.6709 23.893 44.1468 23.893C46.838 23.893 48.1297 25.723 48.1297 28.3066V29.383H42.4245C42.7474 30.7824 43.8239 31.1054 44.9003 31.1054C45.8692 31.1054 46.515 30.8901 47.3762 30.3518H47.4839V32.5048C46.7303 33.043 45.6539 33.2583 44.4698 33.2583Z" fill="#040404"/>
<path d="M58.8944 24.1945H60.8321V26.3474H58.8944V30.0074C58.8944 30.761 59.2174 31.1915 59.9709 31.1915C60.1862 31.1915 60.5091 31.1915 60.7244 31.0839H60.8321V33.1292C60.5091 33.2368 59.9709 33.3445 59.2174 33.3445C57.0644 33.3445 56.2033 32.3757 56.2033 30.1151V26.3474H52.8662V30.0074C52.8662 30.761 53.1892 31.1915 53.9427 31.1915C54.158 31.1915 54.4809 31.1915 54.6962 31.0839H54.8039V33.1292C54.4809 33.2368 53.9427 33.3445 53.1892 33.3445C51.0362 33.3445 50.175 32.3757 50.175 30.1151V26.3474H48.7756V24.1945H50.175V21.7186H52.7586V24.1945H56.0956V21.7186H58.6791V24.1945" fill="#040404"/>
<path d="M69.7237 26.7565C71.1231 26.7565 71.7689 26.003 71.7689 24.8189C71.7689 23.6348 71.1231 22.8812 69.7237 22.8812H68.0013V26.7565H69.7237ZM74.5677 24.8189C74.5677 27.51 72.7378 29.0171 70.0466 29.0171H68.109V33.1077H65.4178V20.6206H70.0466C72.7378 20.6206 74.5677 22.0201 74.5677 24.8189Z" fill="#040404"/>
<path d="M80.4022 30.2659V29.5124C79.9716 29.2971 79.4334 29.1895 78.8952 29.1895C78.034 29.1895 77.4958 29.5124 77.4958 30.2659C77.4958 31.0194 78.034 31.3424 78.7875 31.3424C79.541 31.3424 80.0793 30.9118 80.4022 30.2659ZM80.4022 32.2036C79.864 32.8494 79.0028 33.28 78.034 33.28C76.3116 33.28 74.9122 32.2036 74.9122 30.3736C74.9122 28.6512 76.3116 27.4671 78.3569 27.4671C79.0028 27.4671 79.6487 27.5748 80.2946 27.79V27.6824C80.2946 26.7136 79.7563 26.283 78.3569 26.283C77.4958 26.283 76.6346 26.4983 75.8811 26.9289H75.7734V24.7759C76.4193 24.3453 77.6034 24.0224 78.7875 24.0224C81.4787 24.0224 82.8781 25.3142 82.8781 27.5747V33.0647H80.2946V32.2036" fill="#040404"/>
<path d="M84.2344 28.6295C84.2344 25.723 86.2797 24.0007 88.8632 24.0007C89.8321 24.0007 90.6932 24.216 91.3391 24.6466V26.9071H91.2315C90.6932 26.4766 89.9397 26.2613 89.1862 26.2613C87.8944 26.2613 86.818 27.1224 86.818 28.6295C86.818 30.1365 87.7868 30.9977 89.1862 30.9977C89.9397 30.9977 90.6932 30.7824 91.2315 30.2442H91.3391V32.6124C90.6932 33.043 89.8321 33.2583 88.8632 33.2583C86.2797 33.2583 84.2344 31.536 84.2344 28.6295Z" fill="#040404"/>
<path d="M95.7311 29.0386V33.1292H93.1476V20.6421H95.7311V27.7468L98.4223 24.1945H101.436V24.3021L98.207 28.2851L101.436 32.9139V33.1292H98.4223L95.7311 29.0386Z" fill="#040404"/>
<path d="M107.292 30.2659V29.5124C106.862 29.2971 106.324 29.1895 105.785 29.1895C104.924 29.1895 104.386 29.5124 104.386 30.2659C104.386 31.0194 104.924 31.3424 105.678 31.3424C106.539 31.3424 107.077 30.9118 107.292 30.2659ZM107.4 32.2036C106.862 32.8494 106.001 33.28 105.032 33.28C103.309 33.28 101.91 32.2036 101.91 30.3736C101.91 28.6512 103.309 27.4671 105.355 27.4671C106.001 27.4671 106.646 27.5748 107.292 27.79V27.6824C107.292 26.7136 106.754 26.283 105.355 26.283C104.494 26.283 103.632 26.4983 102.879 26.9289H102.771V24.7759C103.417 24.3453 104.601 24.0224 105.785 24.0224C108.476 24.0224 109.876 25.3142 109.876 27.5747V33.0647H107.292V32.2036" fill="#040404"/>
<path d="M114.332 25.5939C114.763 24.625 115.517 24.0868 116.485 24.0868C116.808 24.0868 117.239 24.1945 117.347 24.1945V26.778H117.239C117.024 26.6703 116.593 26.5627 116.162 26.5627C115.301 26.5627 114.655 26.9933 114.44 27.9621V33.0215H111.857V24.0868H114.44V25.5939" fill="#040404"/>
<path d="M124.344 30.1151V27.2086C123.913 26.5627 123.375 26.2398 122.621 26.2398C121.437 26.2398 120.684 27.101 120.684 28.608C120.684 30.1151 121.437 30.9762 122.621 30.9762C123.375 30.9762 123.913 30.7609 124.344 30.1151ZM124.451 32.1603C123.913 32.9139 123.052 33.2368 121.868 33.2368C119.607 33.2368 118.1 31.1915 118.1 28.608C118.1 26.0245 119.607 23.9792 121.868 23.9792C123.052 23.9792 123.913 24.3021 124.451 24.948V20.5345H127.035V33.1292H124.451V32.1603Z" fill="#040404"/>
<path d="M0.0116384 37.1551H7.7622V38.6621H1.73399V42.5374H7.11632V44.0445H1.73399V48.2427H7.65456V49.7498H-0.0960083V37.1551" fill="#040404"/>
<path d="M14.1349 40.6859C16.0726 40.6859 17.2567 41.9777 17.2567 44.1306V49.6206H15.5343V44.1306C15.5343 42.9465 14.9961 42.193 13.7043 42.193C12.6279 42.193 11.7667 42.8389 11.4437 43.8077V49.6206H9.82904V40.7936H11.4437V42.193C11.982 41.3318 12.8431 40.6859 14.1349 40.6859Z" fill="#040404"/>
<path d="M21.5841 40.8583H23.8447V42.2577H21.5841V46.9942C21.5841 47.963 22.1223 48.2859 23.0911 48.2859C23.3064 48.2859 23.6294 48.2859 23.8447 48.1783V49.5777C23.6294 49.6853 23.3064 49.793 22.7682 49.793C20.7229 49.793 19.8617 48.8241 19.8617 47.1018V42.2577H18.4623V40.8583H19.9694V38.4901H21.5841V40.8583Z" fill="#040404"/>
<path d="M26.5789 44.3674H30.9924C30.8848 43.0757 30.3465 42.1069 28.9471 42.1069C27.6554 42.1069 26.9018 43.0757 26.5789 44.3674ZM29.2701 49.8574C26.6865 49.8574 24.9642 48.1351 24.9642 45.3363C24.9642 42.5374 26.5789 40.7074 28.9471 40.7074C31.3154 40.7074 32.6071 42.4298 32.6071 45.0133V45.7668H26.5789C26.7942 47.5968 27.8707 48.3504 29.4854 48.3504C30.4542 48.3504 31.2077 48.1351 31.9612 47.5968H32.0689V49.1039C31.2077 49.6421 30.3465 49.8574 29.2701 49.8574Z" fill="#040404"/>
<path d="M36.2671 42.2577C36.6977 41.2889 37.4512 40.7506 38.42 40.7506C38.8506 40.7506 39.1735 40.8583 39.2812 40.8583V42.473H39.1735C38.9583 42.3653 38.5277 42.2577 38.0971 42.2577C37.2359 42.2577 36.4824 42.9036 36.1594 43.8724V49.6853H34.6524V40.8583H36.2671V42.2577Z" fill="#040404"/>
<path d="M44.642 48.3075C46.2567 48.3075 47.2255 47.0157 47.2255 45.1857C47.2255 43.4633 46.2567 42.0639 44.642 42.0639C43.7808 42.0639 42.9197 42.6022 42.4891 43.4633V46.8004C42.812 47.8769 43.6732 48.3075 44.642 48.3075ZM44.8573 40.6645C47.4408 40.6645 48.8402 42.8175 48.8402 45.1857C48.8402 47.6616 47.4408 49.7069 44.8573 49.7069C43.7808 49.7069 42.812 49.1686 42.3814 48.5227V52.8286H40.7667V40.6645H42.3814V41.6334C42.9197 41.3104 43.7808 40.6645 44.8573 40.6645Z" fill="#040404"/>
<path d="M52.5002 42.2577C52.9308 41.2889 53.6843 40.7506 54.6532 40.7506C55.0837 40.7506 55.4067 40.8583 55.5143 40.8583V42.473H55.4067C55.1914 42.3653 54.7608 42.2577 54.3302 42.2577C53.469 42.2577 52.7155 42.9036 52.3926 43.8724V49.6853H50.7779V40.8583H52.3926V42.2577" fill="#040404"/>
<path d="M58.0117 37.3275C58.5499 37.3275 59.0882 37.7581 59.0882 38.404C59.0882 39.0499 58.6576 39.4805 58.0117 39.4805C57.4735 39.4805 56.9352 39.0499 56.9352 38.404C56.9352 37.7581 57.3658 37.3275 58.0117 37.3275Z" fill="#040404"/>
<path d="M57.129 49.6206H58.7653V40.8367H57.129V49.6206Z" fill="#040404"/>
<path d="M64.7289 44.4536C66.0206 44.8842 67.42 45.4224 67.42 47.0371C67.42 48.8671 65.913 49.7283 64.083 49.7283C62.8989 49.7283 61.7148 49.4053 61.0689 48.9747V47.36H61.1765C61.9301 48.0059 63.0065 48.3289 64.083 48.3289C65.0518 48.3289 65.913 48.0059 65.913 47.2524C65.913 46.4989 65.2671 46.2836 63.8677 45.853C62.5759 45.4224 61.2842 44.9918 61.2842 43.3771C61.2842 41.6548 62.6836 40.6859 64.5136 40.6859C65.59 40.6859 66.4512 40.9012 67.2048 41.4395V43.0542H67.0971C66.3436 42.5159 65.59 42.0854 64.5136 42.0854C63.4371 42.0854 62.8989 42.5159 62.8989 43.1618C62.6836 43.8077 63.3295 44.023 64.7289 44.4536Z" fill="#040404"/>
<path d="M70.4557 44.3674H74.8692C74.7615 43.0757 74.2233 42.1069 72.8239 42.1069C71.5321 42.1069 70.7786 43.0757 70.4557 44.3674ZM73.1468 49.8574C70.5633 49.8574 68.841 48.1351 68.841 45.3363C68.841 42.5374 70.4557 40.7074 72.8239 40.7074C75.1921 40.7074 76.4839 42.4298 76.4839 45.0133V45.7668H70.4557C70.671 47.5968 71.7474 48.3504 73.3621 48.3504C74.331 48.3504 75.0845 48.1351 75.838 47.5968H75.9457V49.1039C75.0845 49.6421 74.2233 49.8574 73.1468 49.8574Z" fill="#040404"/>
</g>
<defs>
<clipPath id="clip0_0_936">
<rect width="127" height="53.0389" fill="white"/>
</clipPath>
</defs>
</svg>
