<svg width="121" height="21" viewBox="0 0 121 21" fill="none" xmlns="http://www.w3.org/2000/svg">
<path d="M113.79 20.0098C117.529 20.0098 120.466 18.16 121 14.1984L120.734 13.934H119.665L119.398 14.1984C118.864 17.1025 116.995 18.6895 113.79 18.6895C109.784 18.6895 106.846 15.783 106.846 10.4996C106.846 5.21616 109.784 2.31205 113.79 2.31205C116.995 2.31205 118.864 3.89669 119.398 6.53722L119.665 6.80317H120.734L121 6.53722C120.466 2.83921 117.53 0.990993 113.79 0.990993C109.249 0.990993 105.243 4.16106 105.243 10.4996C105.243 16.8397 109.249 20.0098 113.79 20.0098ZM102.038 19.4811V1.51894L101.772 1.25457H99.9018L99.6353 1.51894L92.6906 17.6321H92.4233L85.481 1.51894L85.2122 1.25457H83.3435L83.0747 1.51894V19.4811L83.3435 19.7454H84.4119L84.6784 19.4811V4.16026H84.9473L91.6223 19.4803L91.8912 19.7446H93.2268L93.4933 19.4803L100.17 4.16026H100.437V19.4803L100.704 19.7446H101.774L102.038 19.4811ZM79.6047 19.4811V18.6895L79.3374 18.4252H69.4566L69.1893 18.1608V11.2927L69.4566 11.0291H78.8036L79.0701 10.7648V9.97324L78.8036 9.70729H69.4566L69.1893 9.44371V2.83921L69.4566 2.57563H79.3374L79.6047 2.31205V1.51894L79.3374 1.25457H67.8544L67.5872 1.51894V19.4811L67.8544 19.7454H79.3374L79.6047 19.4811Z" fill="#808080"/>
<path d="M63.3401 16.0712V19.7462H51.2793V1.25457H55.5256V16.0712H63.3401ZM7.57772 19.7462C11.928 19.7462 15.5843 16.8073 16.6263 12.8267L27.2026 21L37.7725 12.8322V19.7462H49.8333V16.0712H42.0187V1.25457H37.7725V8.16856L27.6331 16.0039L25.366 14.2514L35.5045 6.41612L32.4875 4.08428L22.3482 11.9196L20.081 10.1672L30.2204 2.33184L27.2026 0L16.6271 8.1741C15.5844 4.19351 11.9288 1.25457 7.57852 1.25457H0V19.7462H7.57772ZM4.24541 16.0712V4.92963H7.57772C10.3954 4.92963 12.6786 7.42294 12.6786 10.4996C12.6786 13.5771 10.3954 16.0712 7.57772 16.0712H4.24541Z" fill="#007DB8"/>
</svg>
