<svg width="88" height="88" viewBox="0 0 88 88" fill="none" xmlns="http://www.w3.org/2000/svg">
<g filter="url(#filter0_d_201_101)">
<path d="M22.6116 45.3507C28.3032 39.6131 34.0117 33.8756 39.7372 28.138C40.0602 27.8295 40.0957 27.3544 40.0204 26.9141C39.4602 23.639 40.0744 20.263 41.7589 17.38C43.5598 14.3063 46.4565 12.0266 49.8545 11.0105C50.8112 10.7252 51.788 10.5456 52.7686 10.47C56.3421 10.1945 57.0696 14.4844 54.3397 16.8068L50.2537 20.2829C49.9394 20.5561 49.744 20.9403 49.7101 21.3502C49.6761 21.7685 49.8035 22.1784 50.0668 22.4943L54.9174 28.266C55.1892 28.5819 55.5715 28.7783 55.9792 28.8125C56.3955 28.8466 56.8032 28.7185 57.1175 28.4539L61.4963 24.7339C64.1875 22.4476 68.2685 23.7651 67.5931 27.2311C67.4215 28.1115 67.166 28.9786 66.8271 29.82C65.5614 32.962 63.2083 35.5405 60.2011 37.0773C57.5699 38.4221 54.5941 38.8974 51.7003 38.4519C50.8972 38.3283 50.0201 38.3636 49.4637 38.9557C43.9421 44.5994 38.378 50.1918 32.7714 55.7416C29.7133 58.7897 25.1091 58.7385 22.2464 55.6733C19.5025 52.7618 19.6469 48.3476 22.6116 45.3507ZM27.5471 54.2987C28.4985 54.2901 29.4075 53.8888 30.0786 53.2058C30.7412 52.5142 31.1064 51.5921 31.0895 50.6273C31.081 49.3551 30.4014 48.1769 29.297 47.545C28.1927 46.9132 26.842 46.9132 25.7462 47.5621C24.6504 48.2025 23.9793 49.3893 23.9793 50.6614C23.9793 51.6177 24.3531 52.5398 25.0157 53.2229C25.6868 53.8974 26.5957 54.2901 27.5471 54.2987Z" fill="white"/>
</g>
<path d="M12.3276 38.922C18.0191 33.1844 23.7276 27.4468 29.4531 21.7092C29.623 21.547 29.7674 21.3677 29.8693 21.1628C29.0963 17.6793 29.674 14.0335 31.4749 10.9513C33.2758 7.87754 36.1725 5.59787 39.5704 4.58184C42.9768 3.56581 46.6381 3.89025 49.8151 5.47834L39.9697 13.8542C39.6554 14.1274 39.46 14.5116 39.426 14.9215C39.392 15.3398 39.5194 15.7497 39.7828 16.0656L44.6333 21.8373C44.9051 22.1532 45.2874 22.3496 45.6952 22.3838C46.1114 22.4179 46.5192 22.2898 46.8335 22.0252L56.8234 13.5383C57.9107 16.7486 57.8088 20.2492 56.543 23.3912C55.2773 26.5333 52.9242 29.1118 49.9171 30.6486C46.9099 32.1855 43.4525 32.5868 40.182 31.7757C39.8083 31.9635 39.4685 32.2196 39.1796 32.527C33.658 38.1707 28.0939 43.7631 22.4874 49.3129C19.4292 52.361 14.825 52.3098 11.9623 49.2446C9.21847 46.3331 9.36289 41.9189 12.3276 38.922ZM17.2631 47.8699C18.2145 47.8614 19.1234 47.4601 19.7945 46.7771C20.4571 46.0855 20.8224 45.1634 20.8054 44.1986C20.7969 42.9264 20.1173 41.7481 19.013 41.1163C17.9087 40.4845 16.558 40.4845 15.4622 41.1334C14.3663 41.7738 13.6952 42.9605 13.6952 44.2327C13.6952 45.189 14.069 46.1111 14.7316 46.7942C15.4027 47.4687 16.3116 47.8614 17.2631 47.8699Z" fill="url(#paint0_linear_201_101)"/>
<defs>
<filter id="filter0_d_201_101" x="0.284058" y="0.457275" width="87.3833" height="87.543" filterUnits="userSpaceOnUse" color-interpolation-filters="sRGB">
<feFlood flood-opacity="0" result="BackgroundImageFix"/>
<feColorMatrix in="SourceAlpha" type="matrix" values="0 0 0 0 0 0 0 0 0 0 0 0 0 0 0 0 0 0 127 0" result="hardAlpha"/>
<feOffset dy="10"/>
<feGaussianBlur stdDeviation="10"/>
<feComposite in2="hardAlpha" operator="out"/>
<feColorMatrix type="matrix" values="0 0 0 0 0 0 0 0 0 0 0 0 0 0 0 0 0 0 0.1 0"/>
<feBlend mode="normal" in2="BackgroundImageFix" result="effect1_dropShadow_201_101"/>
<feBlend mode="normal" in="SourceGraphic" in2="effect1_dropShadow_201_101" result="shape"/>
</filter>
<linearGradient id="paint0_linear_201_101" x1="33.7857" y1="4" x2="38.3926" y2="78.5887" gradientUnits="userSpaceOnUse">
<stop stop-color="#FF0E6B"/>
<stop offset="1" stop-color="#FFCB42"/>
</linearGradient>
</defs>
</svg>
