<svg width="82" height="86" viewBox="0 0 82 86" fill="none" xmlns="http://www.w3.org/2000/svg">
<g filter="url(#filter0_d_0_846)">
<path d="M23.1284 14.095C21.4243 14.8418 20.4 16.5709 20.4 18.4315V43.1095C20.4 45.1654 21.4162 46.9574 23.2082 47.727L38.5054 55.4227C40.0352 56.1923 41.5649 56.1923 43.0946 55.4227L58.3919 47.727C60.1729 46.9574 61.2 45.1654 61.2 43.1095V18.4315C61.2 16.5709 60.1758 14.8418 58.4716 14.095C47.2289 9.16819 34.3711 9.16819 23.1284 14.095ZM52.7756 27.4652L40.0352 40.2841C39.5216 40.8008 39.019 41.0537 38.2541 41.0537C37.7406 41.0537 37.2379 40.8008 36.7244 40.537L29.0758 35.4028C28.0596 34.6332 27.7973 33.0941 28.5622 31.8078C29.3271 30.5215 30.8568 30.2686 32.1352 31.0382L34.5908 32.6486C36.5768 33.9509 39.2049 33.6766 40.8791 31.9921L49.2244 23.5953C50.2406 22.5729 51.7703 22.5729 52.7975 23.5953C53.8027 24.6398 53.8027 26.4318 52.7756 27.4652Z" fill="white"/>
</g>
<path d="M6 13.005V40.7096C6 42.7655 7.01618 44.5575 8.80814 45.3271L24.1054 53.0228C25.6351 53.7924 27.1649 53.7924 28.6946 53.0228L43.9919 45.3271C45.7729 44.5575 46.8 42.7655 46.8 40.7096V13.005C34.0486 6.33167 18.7514 6.33167 6 13.005ZM38.3756 25.0653L25.6351 37.8842C25.1216 38.4009 24.619 38.6538 23.8541 38.6538C23.3405 38.6538 22.8379 38.4009 22.3244 38.1371L14.6757 33.0029C13.6596 32.2333 13.3973 30.6942 14.1622 29.4079C14.927 28.1216 16.4568 27.8687 17.7352 28.6383L23.6028 32.4862L34.8244 21.1954C35.8406 20.173 37.3703 20.173 38.3974 21.1954C39.4027 22.2399 39.4027 24.0319 38.3756 25.0653Z" fill="url(#paint0_linear_0_846)"/>
<defs>
<filter id="filter0_d_0_846" x="0.400024" y="0.399902" width="80.8" height="85.6001" filterUnits="userSpaceOnUse" color-interpolation-filters="sRGB">
<feFlood flood-opacity="0" result="BackgroundImageFix"/>
<feColorMatrix in="SourceAlpha" type="matrix" values="0 0 0 0 0 0 0 0 0 0 0 0 0 0 0 0 0 0 127 0" result="hardAlpha"/>
<feOffset dy="10"/>
<feGaussianBlur stdDeviation="10"/>
<feComposite in2="hardAlpha" operator="out"/>
<feColorMatrix type="matrix" values="0 0 0 0 0 0 0 0 0 0 0 0 0 0 0 0 0 0 0.1 0"/>
<feBlend mode="normal" in2="BackgroundImageFix" result="effect1_dropShadow_0_846"/>
<feBlend mode="normal" in="SourceGraphic" in2="effect1_dropShadow_0_846" result="shape"/>
</filter>
<linearGradient id="paint0_linear_0_846" x1="26.4" y1="8" x2="21.4738" y2="79.4302" gradientUnits="userSpaceOnUse">
<stop stop-color="#FF0E6B"/>
<stop offset="1" stop-color="#FFCB42"/>
</linearGradient>
</defs>
</svg>
