<svg width="27" height="27" viewBox="0 0 27 27" fill="none" xmlns="http://www.w3.org/2000/svg">
<g clip-path="url(#clip0_0_1835)">
<path d="M10.9565 24.076L13.0708 21.0345C13.5072 20.4306 13.674 19.765 13.5575 19.112C13.4417 18.4633 13.0543 17.8922 12.4394 17.4599L10.8587 16.3537C10.8815 16.28 10.9023 16.2092 10.9215 16.1431C10.9711 15.9709 11.0219 15.8051 11.0809 15.6603C11.7001 14.1415 12.609 12.6968 13.8553 11.2405C14.425 10.5948 14.9178 10.1306 15.4197 9.768C15.7984 10.0521 16.1798 10.3152 16.5456 10.5635C16.6982 10.6685 16.8562 10.7791 17.0091 10.8861C17.6412 11.3284 18.317 11.5014 18.961 11.3865C19.6098 11.2707 20.1838 10.8752 20.6195 10.2419L21.6689 8.73152C21.7877 8.56049 21.9036 8.39651 22.0271 8.22669L22.0323 8.21921C22.2698 7.88822 22.5208 7.5319 22.7461 7.18057C23.1544 6.57919 23.309 5.92035 23.1936 5.27366C23.079 4.63172 22.7026 4.06067 22.1072 3.62284L20.2077 2.29397C19.4471 1.75584 18.5941 1.52733 17.6725 1.61359C16.576 1.71958 15.4695 2.1209 14.1961 2.87418C12.2532 4.01343 10.5354 5.5133 8.78929 7.59338C6.68648 10.1113 5.17735 12.9683 4.30272 16.0821L4.3011 16.0845C3.97591 17.2867 3.6263 18.8802 3.81383 20.5415L3.8173 20.561C3.83001 20.6574 3.84308 20.7557 3.86163 20.8597C4.07189 22.038 4.64787 22.9157 5.62264 23.5409C5.63999 23.5513 5.6605 23.5657 5.68727 23.5785C5.98337 23.7496 6.26944 23.9536 6.56975 24.1735L6.6391 24.2237C6.91884 24.4288 7.14826 24.5897 7.35869 24.7311C7.98969 25.1535 8.66313 25.3154 9.30919 25.1981C9.95804 25.0827 10.5268 24.6947 10.9565 24.076ZM17.8405 3.43074C18.3388 3.38643 18.7631 3.50108 19.1738 3.78846L21.0528 5.10298C21.253 5.24862 21.3764 5.41695 21.407 5.58835C21.4442 5.79664 21.3344 6.00659 21.2363 6.14487L21.2256 6.16029C21.0439 6.44324 20.8482 6.72012 20.6413 7.01249L20.5467 7.14562C20.4844 7.23289 20.422 7.32221 20.3577 7.41229C20.2973 7.4992 20.235 7.58647 20.1723 7.67381L19.1197 9.18925C19.0097 9.34766 18.8351 9.54461 18.6319 9.58087C18.4287 9.61713 18.1968 9.49271 18.0388 9.38212C17.9595 9.32667 17.8808 9.27154 17.7995 9.21644C17.7207 9.16337 17.6419 9.10784 17.5627 9.05278L17.4555 8.97776C17.0255 8.68071 16.618 8.39727 16.2209 8.08536L16.1776 8.05502C15.5175 7.59312 14.9723 7.88936 14.7934 7.98638C14.7791 7.99342 14.7688 7.99976 14.757 8.00638L14.7368 8.01899C13.9606 8.52021 13.2637 9.14155 12.4794 10.0339L12.4777 10.0363C11.0989 11.6369 10.0899 13.2453 9.38942 14.9575C9.30935 15.1466 9.25335 15.3334 9.20131 15.5151C9.19174 15.5483 9.18213 15.5836 9.17051 15.6168L9.16888 15.6191C9.11924 15.7913 9.06847 15.9571 9.00946 16.102L8.99465 16.1447C8.99066 16.1589 8.9843 16.1736 8.97985 16.1875C8.91664 16.3957 8.90208 16.6021 8.93734 16.7997C8.99695 17.1338 9.1852 17.4138 9.4985 17.6309L11.3901 18.9546C11.5379 19.0581 11.719 19.2226 11.7562 19.4309C11.7941 19.6436 11.6626 19.8574 11.58 19.9684L11.5764 19.9735L9.45425 23.0345C9.14884 23.4742 8.81909 23.5261 8.35283 23.213L8.34771 23.2094C8.1207 23.062 7.9 22.902 7.69276 22.7511L7.63367 22.708C7.30068 22.4673 6.95743 22.2195 6.57463 21.9992C6.04487 21.6549 5.75734 21.2071 5.63961 20.5473C5.62878 20.4866 5.62073 20.4164 5.61269 20.3462C5.45886 18.9834 5.76216 17.6197 6.04528 16.5818C6.84674 13.7209 8.23408 11.0936 10.1718 8.77542C11.7821 6.86039 13.351 5.48821 15.1094 4.45108C16.1464 3.83824 17.016 3.51072 17.8405 3.43074Z" fill="white"/>
</g>
<defs>
<clipPath id="clip0_0_1835">
<rect width="21.7692" height="21.7692" fill="white" transform="translate(22.3867 0.751953) rotate(79.8827)"/>
</clipPath>
</defs>
</svg>
