<svg width="31" height="31" viewBox="0 0 31 31" fill="none" xmlns="http://www.w3.org/2000/svg">
<path d="M15.5516 2.58357C8.49914 2.58357 2.75122 8.33149 2.75122 15.384C2.75122 17.6444 3.34539 19.8402 4.45622 21.7777L2.64789 28.4169L9.42914 26.6344C11.3021 27.6548 13.4075 28.1973 15.5516 28.1973C22.6041 28.1973 28.3521 22.4494 28.3521 15.3969C28.3521 11.974 27.0216 8.75774 24.6062 6.34232C23.422 5.14614 22.0115 4.19773 20.4569 3.55239C18.9023 2.90705 17.2348 2.57771 15.5516 2.58357ZM15.5646 4.74066C18.4062 4.74066 21.0671 5.85149 23.0821 7.86649C24.071 8.85507 24.855 10.0291 25.3892 11.3214C25.9234 12.6136 26.1972 13.9986 26.195 15.3969C26.195 21.2611 21.4158 26.0273 15.5516 26.0273C13.64 26.0273 11.7671 25.5236 10.1396 24.5419L9.75205 24.3223L5.72205 25.3815L6.79414 21.4548L6.5358 21.0415C5.46881 19.3477 4.90445 17.3858 4.9083 15.384C4.92122 9.51982 9.68747 4.74066 15.5646 4.74066ZM11.0179 9.46816C10.8112 9.46816 10.4625 9.54566 10.1654 9.86857C9.88122 10.1915 9.04164 10.9794 9.04164 12.5423C9.04164 14.1182 10.1912 15.6294 10.3333 15.849C10.5141 16.0686 12.6066 19.2977 15.8229 20.6669C16.585 21.0157 17.1791 21.2094 17.6441 21.3515C18.4062 21.5969 19.1037 21.5582 19.6591 21.4807C20.2791 21.3902 21.545 20.7057 21.8162 19.9565C22.0875 19.2073 22.0875 18.5744 22.01 18.4323C21.9196 18.3032 21.7129 18.2257 21.39 18.0836C21.0671 17.9027 19.4912 17.1277 19.2071 17.0244C18.91 16.9211 18.7291 16.8694 18.4837 17.1794C18.2771 17.5023 17.6571 18.2257 17.4762 18.4323C17.2825 18.6519 17.1016 18.6777 16.7916 18.5227C16.4558 18.3548 15.4225 18.019 14.2083 16.934C13.2525 16.0815 12.6196 15.0352 12.4258 14.7123C12.2708 14.4023 12.4129 14.2086 12.5679 14.0665C12.71 13.9244 12.9166 13.6919 13.0458 13.4982C13.2137 13.3173 13.2654 13.1752 13.3687 12.9686C13.4721 12.749 13.4204 12.5682 13.3429 12.4132C13.2654 12.2711 12.6196 10.6694 12.3483 10.0365C12.09 9.41649 11.8316 9.49399 11.625 9.48107C11.4441 9.48107 11.2375 9.46816 11.0179 9.46816Z" fill="white"/>
</svg>
