<svg width="29" height="29" viewBox="0 0 29 29" fill="none" xmlns="http://www.w3.org/2000/svg">
<path fill-rule="evenodd" clip-rule="evenodd" d="M9.02019 1.288C10.4376 1.22275 10.8895 1.20825 14.5 1.20825C18.1105 1.20825 18.5624 1.22396 19.9786 1.288C21.3947 1.35204 22.3614 1.578 23.2072 1.90546C24.0929 2.24017 24.8965 2.76338 25.5611 3.44004C26.2377 4.10342 26.7597 4.90575 27.0932 5.79267C27.4219 6.6385 27.6466 7.60517 27.7119 9.01892C27.7771 10.4387 27.7916 10.8906 27.7916 14.4999C27.7916 18.1104 27.7759 18.5623 27.7119 19.9797C27.6479 21.3935 27.4219 22.3601 27.0932 23.206C26.7597 24.093 26.2369 24.8967 25.5611 25.561C24.8965 26.2377 24.0929 26.7597 23.2072 27.0932C22.3614 27.4218 21.3947 27.6466 19.981 27.7118C18.5624 27.7771 18.1105 27.7916 14.5 27.7916C10.8895 27.7916 10.4376 27.7759 9.02019 27.7118C7.60644 27.6478 6.63977 27.4218 5.79394 27.0932C4.90693 26.7596 4.10326 26.2368 3.4389 25.561C2.76269 24.8972 2.2394 24.0939 1.90552 23.2072C1.57806 22.3613 1.35331 21.3947 1.28806 19.9809C1.22281 18.5611 1.20831 18.1092 1.20831 14.4999C1.20831 10.8894 1.22402 10.4375 1.28806 9.02133C1.3521 7.60517 1.57806 6.6385 1.90552 5.79267C2.23989 4.90585 2.76358 4.10259 3.4401 3.43883C4.10353 2.76277 4.90638 2.2395 5.79273 1.90546C6.63856 1.578 7.60523 1.35325 9.01898 1.288H9.02019ZM19.871 3.6805C18.4694 3.61646 18.0489 3.60317 14.5 3.60317C10.9511 3.60317 10.5306 3.61646 9.12894 3.6805C7.8324 3.73971 7.12915 3.956 6.66031 4.13846C6.04044 4.38013 5.59698 4.6665 5.13177 5.13171C4.69078 5.56073 4.35141 6.08301 4.13852 6.66025C3.95606 7.12908 3.73977 7.83233 3.68056 9.12888C3.61652 10.5305 3.60323 10.951 3.60323 14.4999C3.60323 18.0488 3.61652 18.4693 3.68056 19.871C3.73977 21.1675 3.95606 21.8708 4.13852 22.3396C4.35119 22.916 4.69073 23.4392 5.13177 23.8681C5.56073 24.3092 6.08394 24.6487 6.66031 24.8614C7.12915 25.0438 7.8324 25.2601 9.12894 25.3193C10.5306 25.3834 10.9499 25.3967 14.5 25.3967C18.0501 25.3967 18.4694 25.3834 19.871 25.3193C21.1676 25.2601 21.8708 25.0438 22.3396 24.8614C22.9595 24.6197 23.403 24.3333 23.8682 23.8681C24.3092 23.4392 24.6488 22.916 24.8614 22.3396C25.0439 21.8708 25.2602 21.1675 25.3194 19.871C25.3834 18.4693 25.3967 18.0488 25.3967 14.4999C25.3967 10.951 25.3834 10.5305 25.3194 9.12888C25.2602 7.83233 25.0439 7.12908 24.8614 6.66025C24.6198 6.04038 24.3334 5.59692 23.8682 5.13171C23.4391 4.69075 22.9169 4.35138 22.3396 4.13846C21.8708 3.956 21.1676 3.73971 19.871 3.6805ZM12.8023 18.5974C13.7504 18.9921 14.8061 19.0453 15.7892 18.7481C16.7722 18.4508 17.6216 17.8215 18.1922 16.9676C18.7628 16.1137 19.0192 15.0882 18.9177 14.0663C18.8162 13.0443 18.363 12.0893 17.6356 11.3643C17.1719 10.9009 16.6112 10.546 15.9939 10.3253C15.3766 10.1046 14.718 10.0235 14.0656 10.0878C13.4132 10.1522 12.7831 10.3604 12.2208 10.6974C11.6585 11.0345 11.178 11.4921 10.8137 12.0372C10.4495 12.5822 10.2106 13.2013 10.1144 13.8498C10.0181 14.4983 10.0668 15.16 10.257 15.7874C10.4471 16.4148 10.7741 16.9922 11.2142 17.4781C11.6543 17.964 12.1967 18.3463 12.8023 18.5974ZM9.66906 9.669C10.3035 9.0346 11.0566 8.53136 11.8855 8.18802C12.7144 7.84468 13.6028 7.66797 14.5 7.66797C15.3972 7.66797 16.2856 7.84468 17.1145 8.18802C17.9433 8.53136 18.6965 9.0346 19.3309 9.669C19.9653 10.3034 20.4685 11.0566 20.8119 11.8854C21.1552 12.7143 21.3319 13.6027 21.3319 14.4999C21.3319 15.3971 21.1552 16.2855 20.8119 17.1144C20.4685 17.9433 19.9653 18.6964 19.3309 19.3308C18.0497 20.6121 16.3119 21.3319 14.5 21.3319C12.688 21.3319 10.9503 20.6121 9.66906 19.3308C8.38782 18.0496 7.66803 16.3119 7.66803 14.4999C7.66803 12.688 8.38782 10.9502 9.66906 9.669ZM22.8471 8.68542C23.0044 8.53712 23.1302 8.35878 23.2173 8.16097C23.3043 7.96316 23.3508 7.74989 23.3539 7.53379C23.3571 7.31769 23.3169 7.10316 23.2356 6.9029C23.1544 6.70263 23.0338 6.5207 22.8809 6.36788C22.7281 6.21506 22.5462 6.09446 22.3459 6.01321C22.1457 5.93196 21.9311 5.89172 21.715 5.89487C21.4989 5.89802 21.2857 5.9445 21.0878 6.03155C20.89 6.1186 20.7117 6.24446 20.5634 6.40167C20.275 6.70741 20.1171 7.11352 20.1232 7.53379C20.1293 7.95406 20.299 8.3554 20.5962 8.6526C20.8934 8.94981 21.2948 9.11948 21.715 9.12561C22.1353 9.13174 22.5414 8.97383 22.8471 8.68542Z" fill="white"/>
</svg>
