<svg width="106" height="25" viewBox="0 0 106 25" fill="none" xmlns="http://www.w3.org/2000/svg">
<path fill-rule="evenodd" clip-rule="evenodd" d="M10.6822 0.365502C14.0327 0.0168624 17.4092 -0.000144441 20.7684 -0.000144441C22.9013 -0.0171512 25.0429 0.118903 27.1154 0.629107C28.808 1.05428 30.5696 1.80258 31.5972 3.26516C32.5385 4.58319 32.5817 6.30088 32.2449 7.82298C33.2466 6.19883 34.5505 4.75326 36.1049 3.6223C38.5919 1.77707 41.623 0.765162 44.6799 0.322985C47.0287 -0.034158 49.4121 -0.0426615 51.7782 0.0593794C52.7713 0.13591 53.8162 0.0763862 54.7229 0.544073C55.3188 0.816182 55.7678 1.38591 55.8455 2.03217C55.9492 2.76346 56.0441 3.49475 56.1391 4.22605C56.1909 4.53217 56.1132 4.91482 55.811 5.07639C55.6901 5.15292 55.5433 5.14441 55.4051 5.13591C53.3412 4.93183 51.2601 4.82128 49.179 4.81278C47.2878 4.82979 45.3794 5.01686 43.5832 5.63761C42.2361 6.1053 40.9667 6.82809 39.9563 7.83999C38.7215 9.03897 37.9011 10.6036 37.4175 12.2362C37.0203 13.5628 36.6749 14.9233 36.6835 16.3179C36.7008 17.1767 36.908 18.1121 37.5988 18.7073C38.5056 19.4897 39.7232 19.7703 40.8803 19.9658C43.0823 20.2975 45.3189 20.1869 47.5382 20.0849C49.2394 19.9999 50.932 19.8553 52.6245 19.7618C51.9855 18.0356 52.0459 16.1308 52.4 14.3536C53.0304 11.2924 54.3084 8.29918 56.3896 5.90972C58.1253 3.90292 60.4309 2.39781 62.9352 1.48795C65.9835 0.356998 69.265 -0.034158 72.4947 0.00835896C74.6621 -0.000144441 76.8296 0.127407 78.954 0.552577C80.2579 0.833189 81.5619 1.22435 82.6758 1.95564C83.453 2.46584 84.1093 3.19713 84.3857 4.08149C84.6015 4.73625 84.6188 5.43353 84.5152 6.1053C85.5514 4.30258 87.1749 2.8655 89.0401 1.91312C91.104 0.858699 93.4183 0.348495 95.724 0.13591C97.9087 -0.0596682 100.102 0.0253658 102.287 0.0593794C103.159 0.093393 104.057 0.1104 104.895 0.399515C105.551 0.629107 106.164 1.30088 105.966 2.02366C105.776 2.65292 105.508 3.25666 105.292 3.87741C105.137 4.25156 105.059 4.67673 104.731 4.94884C104.515 5.15292 104.213 5.22094 103.928 5.20394C101.682 5.12741 99.4372 5.12741 97.2006 5.12741C95.7758 5.1104 94.2905 5.23795 92.9952 5.88421C92.0798 6.34339 91.3717 7.17673 91.0868 8.15462C89.5928 13.2822 88.0902 18.4097 86.5963 23.5288C86.4754 23.9029 86.4236 24.3366 86.1041 24.6002C85.8105 24.8638 85.396 24.9233 85.016 24.9148C83.2544 24.9063 81.5014 24.9148 79.7398 24.9148C79.4289 24.9063 79.049 24.8298 78.9021 24.5152C78.7985 24.3111 78.8503 24.09 78.9108 23.8859C80.327 19.0475 81.7346 14.2005 83.1508 9.3621C82.2441 10.6121 80.9919 11.573 79.6189 12.2788C77.201 13.5203 74.4981 14.0985 71.8124 14.4471C67.5897 14.9743 63.367 15.5101 59.1443 16.0373C59.1184 17.0237 59.3515 18.0951 60.1028 18.7924C60.9922 19.6767 62.2962 19.8723 63.4965 20.0084C66.9507 20.3315 70.4221 20.0934 73.8763 19.9318C75.1112 19.8808 76.3461 19.8043 77.5809 19.7703C77.8573 19.7277 78.2113 19.8978 78.125 20.2209C77.8745 21.1988 77.4946 22.1427 77.2614 23.1291C77.0887 23.6988 76.5792 24.0815 76.0438 24.3026C75.2494 24.6342 74.3685 24.6597 73.5223 24.7448C71.657 24.8723 69.7831 24.9148 67.9092 24.9318C64.5932 24.9743 61.1909 25.0849 57.9785 24.1325C56.1305 23.5883 54.3171 22.6019 53.2463 20.9607C53.0045 21.8196 53.039 22.806 52.4777 23.5458C51.9164 24.2516 50.9492 24.4216 50.103 24.5832C48.1427 24.8808 46.1479 24.9063 44.1704 24.9573C41.3553 25.0084 38.4883 25.0679 35.7422 24.3536C34.1965 23.9539 32.6766 23.2907 31.5281 22.1852C30.5523 21.2754 29.9219 20.0424 29.6629 18.7499C29.5074 18.0526 29.4815 17.3383 29.4729 16.6325C28.9375 18.4012 28.3503 20.1529 27.7976 21.9216C27.6595 22.4148 27.4349 22.8995 27.0291 23.2311C26.39 23.7584 25.5438 23.9454 24.7493 24.0985C21.157 24.7107 17.4955 24.8893 13.8514 24.9488C11.4335 24.9828 8.98964 24.9403 6.59762 24.5492C4.91371 24.2516 3.19526 23.8264 1.78768 22.823C0.872328 22.1852 0.181493 21.1733 0.043326 20.0509C-0.112112 18.8009 0.190129 17.5254 0.742797 16.3944C1.68406 14.5662 3.46296 13.3162 5.31958 12.4914C7.15029 11.675 9.11054 11.1733 11.0881 10.8162C12.5215 10.5526 13.9637 10.408 15.4058 10.2124C18.3245 9.81278 21.2347 9.3536 24.1448 8.88591C24.6025 8.80938 25.0343 8.52877 25.207 8.09509C25.4661 7.46584 25.5524 6.69203 25.1897 6.07979C24.8702 5.51006 24.2657 5.17843 23.6699 4.94884C22.5214 4.53217 21.2951 4.43013 20.0775 4.37911C17.0465 4.32809 14.0327 4.59169 11.0103 4.82128C9.79274 4.91482 8.57514 5.02537 7.36618 5.14441C7.09848 5.16992 6.68398 5.07639 6.72716 4.73625C6.80487 4.26856 7.00349 3.82639 7.13302 3.37571C7.36618 2.72945 7.4698 1.99815 7.95339 1.47945C8.63559 0.722645 9.69775 0.467543 10.6822 0.365502ZM64.8523 5.3655C63.6951 5.84169 62.7452 6.70904 62.0544 7.72945C61.1477 9.03897 60.6209 10.5611 60.1632 12.0662C63.2979 11.624 66.4326 11.1903 69.5672 10.7567C71.2943 10.5186 73.0387 10.238 74.6621 9.6002C75.5948 9.21754 76.5533 8.70734 77.0973 7.83999C77.4341 7.26176 77.5896 6.47945 77.2096 5.87571C76.8037 5.23795 76.0352 4.95734 75.3357 4.75326C73.7036 4.33659 71.9938 4.3536 70.3185 4.38761C68.4705 4.47264 66.5794 4.65122 64.8523 5.3655ZM12.5733 14.5407C11.7443 14.6512 10.9067 14.7277 10.1122 14.9828C9.18826 15.2635 8.28153 15.7737 7.75477 16.5985C7.4439 17.0917 7.21074 17.6784 7.27119 18.2737C7.33164 18.8349 7.75477 19.2941 8.23836 19.5747C8.92056 19.9743 9.71502 20.1614 10.4922 20.2975C11.8911 20.5271 13.3246 20.5696 14.7495 20.5611C16.9601 20.5441 19.1881 20.5016 21.3815 20.1954C22.15 17.8315 22.9013 15.459 23.6526 13.0866C19.948 13.5628 16.2607 14.0475 12.5733 14.5407Z" fill="#84BA40"/>
</svg>
