<svg width="81" height="81" viewBox="0 0 81 81" fill="none" xmlns="http://www.w3.org/2000/svg">
<g filter="url(#filter0_d_0_747)">
<path fill-rule="evenodd" clip-rule="evenodd" d="M50.6722 35.3092C50.4768 35.5046 50.3538 35.7796 50.3538 36.0619C50.3538 36.3803 50.4696 36.6554 50.6722 36.8508C50.8315 37.01 51.1065 37.1258 51.4249 37.1258C51.6999 37.1258 51.975 37.01 52.1776 36.8508C52.373 36.6554 52.4961 36.3803 52.4961 36.0619C52.4961 35.7869 52.3803 35.5118 52.1776 35.3092C51.9822 35.1138 51.7072 34.9908 51.4249 34.9908C51.1065 34.9908 50.8242 35.1138 50.6722 35.3092ZM39.6714 25.4157C39.6714 25.6907 39.7872 25.9657 39.9898 26.1684C40.1852 26.3638 40.4603 26.4868 40.7425 26.4868C41.061 26.4868 41.2926 26.371 41.4952 26.1684C41.6906 25.973 41.8137 25.6979 41.8137 25.4157C41.8137 25.0972 41.6979 24.8656 41.4952 24.663C41.2998 24.4676 41.061 24.3445 40.7425 24.3445C40.4675 24.3445 40.1925 24.4603 39.9898 24.663C39.7872 24.8584 39.6714 25.0972 39.6714 25.4157ZM30.8418 34.1657C31.0372 33.9703 31.1602 33.6953 31.1602 33.413C31.1602 33.0946 31.0444 32.8195 30.8418 32.6603C30.6464 32.4649 30.3713 32.3419 30.0891 32.3419C29.7706 32.3419 29.4956 32.4577 29.3002 32.6603C29.141 32.8557 28.9818 33.0946 28.9818 33.413C28.9818 33.688 29.141 33.963 29.3002 34.1657C29.4956 34.3611 29.7706 34.4841 30.0891 34.4841C30.3641 34.4841 30.6391 34.3611 30.8418 34.1657ZM31.153 36.4093V42.4815C31.153 43.0749 30.6391 43.5454 30.0891 43.5454C29.4956 43.5454 28.9818 43.0749 28.9818 42.4815V36.4093C28.5475 36.2501 28.1567 36.0185 27.8021 35.6566C27.2086 35.0631 26.854 34.2743 26.854 33.4058C26.854 32.5011 27.2086 31.7122 27.8021 31.1187C28.1567 30.8003 28.5548 30.5253 28.9818 30.3661V18.9889C28.9818 18.4388 29.4956 17.925 30.0891 17.925C30.6391 17.925 31.153 18.4388 31.153 18.9889V30.3805C31.5872 30.5398 31.978 30.8148 32.3327 31.1332C32.9261 31.7267 33.2808 32.5156 33.2808 33.4202C33.2808 34.2887 32.9261 35.0776 32.3327 35.6711C31.9853 36.0185 31.5872 36.2573 31.153 36.4093ZM20.4706 17.925V43.5454C20.4706 45.5935 21.2956 47.4463 22.678 48.8287C24.0169 50.1676 25.8697 50.9999 27.9251 50.9999H53.5455C55.5937 50.9999 57.4464 50.1748 58.8288 48.8287C60.1677 47.4463 61 45.5935 61 43.5454V17.925C61 15.8768 60.1749 14.024 58.8288 12.6779C57.4537 11.2955 55.6009 10.4705 53.5455 10.4705H27.9251C25.8697 10.4705 24.0169 11.2955 22.678 12.6779C21.2956 14.0168 20.4706 15.8696 20.4706 17.925ZM39.6714 42.4815V28.4047C39.2371 28.2455 38.8029 28.0139 38.4917 27.652C37.8982 27.102 37.5436 26.2697 37.5436 25.4012C37.5436 24.4965 37.8982 23.7077 38.4917 23.1142C38.8101 22.7957 39.2444 22.5207 39.6714 22.3615V18.9744C39.6714 18.4244 40.1418 17.9105 40.7353 17.9105C41.3288 17.9105 41.7992 18.4244 41.7992 18.9744V22.3615C42.2696 22.5207 42.6677 22.7957 42.9789 23.1142L43.0151 23.1504C43.5651 23.7004 43.9197 24.5327 43.9197 25.4012C43.9197 26.2697 43.5651 27.0586 43.0151 27.652C42.6604 28.0067 42.2624 28.2455 41.7919 28.4047V42.4815C41.7919 43.0749 41.3215 43.5454 40.728 43.5454C40.1346 43.5454 39.6714 43.0749 39.6714 42.4815ZM50.3538 42.4815V39.0944C49.8834 38.9351 49.4853 38.6601 49.1307 38.3417C48.5806 37.7482 48.226 36.9593 48.226 36.0546C48.226 35.1862 48.5806 34.3973 49.1307 33.8038C49.4853 33.4854 49.8834 33.2104 50.3538 33.0511V18.9889C50.3538 18.4388 50.8242 17.925 51.4177 17.925C52.0111 17.925 52.4816 18.4388 52.4816 18.9889V33.0656C52.9158 33.2248 53.3501 33.4998 53.6613 33.8183C54.2547 34.4118 54.6094 35.2006 54.6094 36.0691C54.6094 36.9738 54.2547 37.7627 53.6613 38.3561C53.3428 38.6746 52.9086 38.9496 52.4816 39.1088V42.4959C52.4816 43.0894 52.0111 43.5598 51.4177 43.5598C50.8242 43.5598 50.3538 43.0749 50.3538 42.4815Z" fill="white"/>
</g>
<g clip-path="url(#clip0_0_747)">
<path fill-rule="evenodd" clip-rule="evenodd" d="M38.2016 30.1132C38.0062 30.3086 37.8832 30.5836 37.8832 30.8658C37.8832 31.1843 37.999 31.4593 38.2016 31.6547C38.3609 31.8139 38.6359 31.9297 38.9543 31.9297C39.2294 31.9297 39.5044 31.8139 39.707 31.6547C39.9024 31.4593 40.0255 31.1843 40.0255 30.8658C40.0255 30.5908 39.9097 30.3158 39.707 30.1132C39.5116 29.9177 39.2366 29.7947 38.9543 29.7947C38.6359 29.7947 38.3536 29.9177 38.2016 30.1132ZM27.2008 20.2196C27.2008 20.4947 27.3166 20.7697 27.5193 20.9723C27.7147 21.1677 27.9897 21.2908 28.2719 21.2908C28.5904 21.2908 28.822 21.175 29.0246 20.9723C29.22 20.7769 29.3431 20.5019 29.3431 20.2196C29.3431 19.9012 29.2273 19.6696 29.0246 19.4669C28.8292 19.2715 28.5904 19.1485 28.2719 19.1485C27.9969 19.1485 27.7219 19.2643 27.5193 19.4669C27.3166 19.6624 27.2008 19.9012 27.2008 20.2196ZM18.3712 28.9696C18.5666 28.7742 18.6896 28.4992 18.6896 28.217C18.6896 27.8985 18.5738 27.6235 18.3712 27.4643C18.1758 27.2689 17.9008 27.1458 17.6185 27.1458C17.3001 27.1458 17.025 27.2616 16.8296 27.4643C16.6704 27.6597 16.5112 27.8985 16.5112 28.217C16.5112 28.492 16.6704 28.767 16.8296 28.9696C17.025 29.1651 17.3001 29.2881 17.6185 29.2881C17.8935 29.2881 18.1685 29.1651 18.3712 28.9696ZM18.6824 31.2132V37.2854C18.6824 37.8789 18.1685 38.3493 17.6185 38.3493C17.025 38.3493 16.5112 37.8789 16.5112 37.2854V31.2132C16.0769 31.054 15.6861 30.8224 15.3315 30.4605C14.738 29.8671 14.3834 29.0782 14.3834 28.2097C14.3834 27.305 14.738 26.5162 15.3315 25.9227C15.6861 25.6043 16.0842 25.3292 16.5112 25.17V13.7928C16.5112 13.2428 17.025 12.7289 17.6185 12.7289C18.1685 12.7289 18.6824 13.2428 18.6824 13.7928V25.1845C19.1166 25.3437 19.5075 25.6187 19.8621 25.9372C20.4556 26.5306 20.8102 27.3195 20.8102 28.2242C20.8102 29.0927 20.4556 29.8816 19.8621 30.475C19.5147 30.8224 19.1166 31.0613 18.6824 31.2132ZM8 12.7289V38.3493C8 40.3975 8.82506 42.2503 10.2074 43.6326C11.5463 44.9715 13.3991 45.8038 15.4545 45.8038H41.0749C43.1231 45.8038 44.9758 44.9788 46.3582 43.6326C47.6971 42.2503 48.5294 40.3975 48.5294 38.3493V12.7289C48.5294 10.6807 47.7043 8.82798 46.3582 7.48182C44.9831 6.09948 43.1303 5.27441 41.0749 5.27441H15.4545C13.3991 5.27441 11.5463 6.09948 10.2074 7.48182C8.82506 8.82074 8 10.6735 8 12.7289ZM27.2008 37.2854V23.2087C26.7666 23.0495 26.3323 22.8179 26.0211 22.456C25.4276 21.9059 25.073 21.0736 25.073 20.2052C25.073 19.3005 25.4276 18.5116 26.0211 17.9181C26.3396 17.5997 26.7738 17.3247 27.2008 17.1655V13.7784C27.2008 13.2283 27.6712 12.7145 28.2647 12.7145C28.8582 12.7145 29.3286 13.2283 29.3286 13.7784V17.1655C29.799 17.3247 30.1971 17.5997 30.5083 17.9181L30.5445 17.9543C31.0945 18.5044 31.4492 19.3367 31.4492 20.2052C31.4492 21.0736 31.0945 21.8625 30.5445 22.456C30.1899 22.8106 29.7918 23.0495 29.3214 23.2087V37.2854C29.3214 37.8789 28.8509 38.3493 28.2575 38.3493C27.664 38.3493 27.2008 37.8789 27.2008 37.2854ZM37.8832 37.2854V33.8983C37.4128 33.7391 37.0147 33.4641 36.6601 33.1456C36.11 32.5522 35.7554 31.7633 35.7554 30.8586C35.7554 29.9901 36.11 29.2012 36.6601 28.6078C37.0147 28.2893 37.4128 28.0143 37.8832 27.8551V13.7928C37.8832 13.2428 38.3536 12.7289 38.9471 12.7289C39.5406 12.7289 40.011 13.2428 40.011 13.7928V27.8696C40.4452 28.0288 40.8795 28.3038 41.1907 28.6222C41.7842 29.2157 42.1388 30.0046 42.1388 30.8731C42.1388 31.7778 41.7842 32.5666 41.1907 33.1601C40.8722 33.4785 40.438 33.7536 40.011 33.9128V37.2999C40.011 37.8934 39.5406 38.3638 38.9471 38.3638C38.3536 38.3638 37.8832 37.8789 37.8832 37.2854Z" fill="url(#paint0_linear_0_747)"/>
</g>
<defs>
<filter id="filter0_d_0_747" x="0.470581" y="0.470459" width="80.5294" height="80.5293" filterUnits="userSpaceOnUse" color-interpolation-filters="sRGB">
<feFlood flood-opacity="0" result="BackgroundImageFix"/>
<feColorMatrix in="SourceAlpha" type="matrix" values="0 0 0 0 0 0 0 0 0 0 0 0 0 0 0 0 0 0 127 0" result="hardAlpha"/>
<feOffset dy="10"/>
<feGaussianBlur stdDeviation="10"/>
<feComposite in2="hardAlpha" operator="out"/>
<feColorMatrix type="matrix" values="0 0 0 0 0 0 0 0 0 0 0 0 0 0 0 0 0 0 0.1 0"/>
<feBlend mode="normal" in2="BackgroundImageFix" result="effect1_dropShadow_0_747"/>
<feBlend mode="normal" in="SourceGraphic" in2="effect1_dropShadow_0_747" result="shape"/>
</filter>
<linearGradient id="paint0_linear_0_747" x1="28.2647" y1="5.27441" x2="24.4033" y2="68.8221" gradientUnits="userSpaceOnUse">
<stop stop-color="#FF0E6B"/>
<stop offset="1" stop-color="#FFCB42"/>
</linearGradient>
<clipPath id="clip0_0_747">
<rect width="40.5294" height="40.5294" fill="white" transform="translate(8 5.27441)"/>
</clipPath>
</defs>
</svg>
