<svg width="21" height="21" viewBox="0 0 21 21" fill="none" xmlns="http://www.w3.org/2000/svg">
<path d="M10.535 1.75005C5.75745 1.75005 1.8637 5.6438 1.8637 10.4213C1.8637 11.9525 2.2662 13.4401 3.0187 14.7526L1.7937 19.25L6.38745 18.0426C7.6562 18.7338 9.08245 19.1013 10.535 19.1013C15.3125 19.1013 19.2062 15.2076 19.2062 10.4301C19.2062 8.1113 18.305 5.93255 16.6687 4.2963C15.8665 3.48599 14.911 2.84351 13.8579 2.40635C12.8048 1.96918 11.6752 1.74608 10.535 1.75005ZM10.5437 3.2113C12.4687 3.2113 14.2712 3.9638 15.6362 5.3288C16.3061 5.99849 16.8372 6.79383 17.1991 7.66922C17.561 8.54461 17.7465 9.48282 17.745 10.4301C17.745 14.4025 14.5075 17.6313 10.535 17.6313C9.23995 17.6313 7.9712 17.29 6.8687 16.625L6.6062 16.4763L3.8762 17.1938L4.60245 14.5338L4.42745 14.2538C3.70465 13.1064 3.32234 11.7774 3.32495 10.4213C3.3337 6.4488 6.56245 3.2113 10.5437 3.2113ZM7.4637 6.4138C7.3237 6.4138 7.08745 6.4663 6.8862 6.68505C6.6937 6.9038 6.12495 7.43755 6.12495 8.4963C6.12495 9.5638 6.9037 10.5876 6.99995 10.7363C7.12245 10.8851 8.53995 13.0725 10.7187 14C11.235 14.2363 11.6375 14.3676 11.9525 14.4638C12.4687 14.6301 12.9412 14.6038 13.3175 14.5513C13.7375 14.49 14.595 14.0263 14.7787 13.5188C14.9625 13.0113 14.9625 12.5826 14.91 12.4863C14.8487 12.3988 14.7087 12.3463 14.49 12.2501C14.2712 12.1276 13.2037 11.6026 13.0112 11.5326C12.81 11.4626 12.6875 11.4276 12.5212 11.6376C12.3812 11.8563 11.9612 12.3463 11.8387 12.4863C11.7075 12.6351 11.585 12.6526 11.375 12.5476C11.1475 12.4338 10.4475 12.2063 9.62495 11.4713C8.97745 10.8938 8.5487 10.1851 8.41745 9.9663C8.31245 9.7563 8.4087 9.62505 8.5137 9.5288C8.60995 9.43255 8.74995 9.27505 8.83745 9.1438C8.9512 9.0213 8.9862 8.92505 9.0562 8.78505C9.1262 8.6363 9.0912 8.5138 9.0387 8.4088C8.9862 8.31255 8.5487 7.22755 8.36495 6.7988C8.18995 6.3788 8.01495 6.4313 7.87495 6.42255C7.75245 6.42255 7.61245 6.4138 7.4637 6.4138Z" fill="white"/>
</svg>
